<svg xmlns="http://www.w3.org/2000/svg" width="51" height="40" viewBox="0 0 51 40">
  <g fill="none" fill-rule="evenodd">
    <rect width="48.75" height="37.75" x="1.125" y="1.125" fill="#FFF" stroke="#B6BDD3" stroke-width="2.25" rx="3.75"/>
    <rect width="15" height="3" x="6" y="7" fill="#B6BDD3" rx="1.5"/>
    <rect width="8" height="3" x="6" y="13" fill="#B6BDD3" rx="1.5"/>
    <rect width="8" height="3" x="6" y="19" fill="#B6BDD3" rx="1.5"/>
    <rect width="8" height="3" x="6" y="25" fill="#B6BDD3" rx="1.5"/>
    <rect width="11" height="3" x="6" y="31" fill="#B6BDD3" rx="1.5"/>
    <g fill="#4D71F3" fill-rule="nonzero" transform="translate(20 7)">
      <rect width="1.186" height="22.878" x="6.932" y="-.309" transform="rotate(-149.999 7.525 11.13)"/>
      <rect width="22.879" height="1.186" x="1.057" y="19.157"/>
      <rect width="13.214" height="1.186" x=".921" y="22.021" transform="rotate(-149.999 7.528 22.613)"/>
      <rect width="13.214" height="1.186" x="10.862" y="4.801" transform="rotate(-149.999 17.47 5.393)"/>
      <rect width="1.186" height="13.214" x="6.938" y="-1.218" transform="rotate(-120.001 7.531 5.389)"/>
      <rect width="22.878" height="1.186" x="6.038" y="10.537" transform="rotate(-120.001 17.477 11.13)"/>
      <rect width="1.186" height="13.214" x="1.964" y="7.393"/>
      <rect width="1.186" height="13.214" x="21.85" y="7.393"/>
      <rect width="1.036" height="11.493" x="16.951" y="16.861" transform="rotate(-120.001 17.469 22.607)"/>
      <path d="M24.6071429 20.9928571C23.9214286 22.1857143 22.3928571 22.5928571 21.2 21.9071429 20.0071429 21.2214286 19.6 19.6928571 20.2857143 18.5 20.9714286 17.3071429 22.5 16.9 23.6928571 17.5857143 24.8928571 18.2785714 25.3 19.8 24.6071429 20.9928571M4.70714286 9.5C4.02142857 10.6928571 2.49285714 11.1 1.3 10.4142857.107142857 9.72857143-.3 8.2.385714286 7.00714286 1.07142857 5.81428571 2.6 5.40714286 3.79285714 6.09285714 4.98571429 6.78571429 5.39285714 8.30714286 4.70714286 9.5M.392857143 20.9928571C-.292857143 19.8.114285714 18.2785714 1.30714286 17.5857143 2.5 16.9 4.02142857 17.3071429 4.71428571 18.5 5.4 19.6928571 4.99285714 21.2142857 3.8 21.9071429 2.6 22.5928571 1.07857143 22.1857143.392857143 20.9928571M20.2928571 9.5C19.6071429 8.30714286 20.0142857 6.78571429 21.2071429 6.09285714 22.4 5.40714286 23.9214286 5.81428571 24.6142857 7.00714286 25.3 8.2 24.8928571 9.72142857 23.7 10.4142857 22.5071429 11.1 20.9785714 10.6928571 20.2928571 9.5M12.5 27.9857143C11.1214286 27.9857143 10.0071429 26.8714286 10.0071429 25.4928571 10.0071429 24.1142857 11.1214286 23 12.5 23 13.8785714 23 14.9928571 24.1142857 14.9928571 25.4928571 14.9928571 26.8642857 13.8785714 27.9857143 12.5 27.9857143M12.5 5C11.1214286 5 10.0071429 3.88571429 10.0071429 2.50714286 10.0071429 1.12857143 11.1214286.0142857143 12.5.0142857143 13.8785714.0142857143 14.9928571 1.12857143 14.9928571 2.50714286 14.9928571 3.88571429 13.8785714 5 12.5 5"/>
    </g>
  </g>
</svg>
