<svg xmlns="http://www.w3.org/2000/svg" width="50" height="45" viewBox="0 0 50 45">
  <g fill="none" fill-rule="evenodd" transform="translate(2)">
    <path fill="#FFF" stroke="#B6BDD3" stroke-linecap="round" stroke-linejoin="round" stroke-width="2.25" d="M2.80476259,14.8170807 L42.8047626,12.208385 C44.4581045,12.1005584 45.8858137,13.3534461 45.9936403,15.006788 C45.997879,15.0717808 46,15.1368944 46,15.2020254 L46,22.7979746 C46,24.4548289 44.6568542,25.7979746 43,25.7979746 C42.9348691,25.7979746 42.8697554,25.7958536 42.8047626,25.791615 L2.80476259,23.1829193 C1.22705444,23.0800253 1.52589162e-15,21.7703388 0,20.189279 L0,17.810721 C2.50465224e-16,16.2296612 1.22705444,14.9199747 2.80476259,14.8170807 Z"/>
    <rect width="26.75" height="35.75" x="8.125" y="1.125" fill="#FFF" stroke="#4D71F3" stroke-width="2.25" rx="3.75"/>
    <path fill="#FFF" stroke="#B6BDD3" stroke-dasharray="25 41" stroke-linecap="round" stroke-linejoin="round" stroke-width="2.25" d="M19.75,9 L35.25,9 C37.3210678,9 39,10.6789322 39,12.75 L39,39.25 C39,41.3210678 37.3210678,43 35.25,43 L19.75,43 C17.6789322,43 16,41.3210678 16,39.25 L16,12.75 C16,10.6789322 17.6789322,9 19.75,9 Z"/>
    <path stroke="#4D71F3" stroke-dasharray="30 81" stroke-linecap="round" stroke-linejoin="round" stroke-width="2.25" d="M19.75,6 L35.25,6 C37.3210678,6 39,7.67893219 39,9.75 L39,33.25 C39,35.3210678 37.3210678,37 35.25,37 L19.75,37 C17.6789322,37 16,35.3210678 16,33.25 L16,9.75 C16,7.67893219 17.6789322,6 19.75,6 Z" transform="matrix(1 0 0 -1 0 43)"/>
    <rect width="9" height="3" x="15" y="14" fill="#4D71F3" rx="1.5"/>
    <circle cx="28.5" cy="15.5" r="1.5" fill="#4D71F3"/>
  </g>
</svg>
