<svg xmlns="http://www.w3.org/2000/svg" width="51" height="43" viewBox="0 0 51 43">
  <g fill="none" fill-rule="evenodd">
    <rect width="48.75" height="39.75" x="1.125" y="1.508" fill="#FFF" stroke="#B6BDD3" stroke-width="2.25" rx="3.75"/>
    <circle cx="7.5" cy="7.5" r="1.5" fill="#B6BDD3"/>
    <circle cx="12.5" cy="7.5" r="1.5" fill="#B6BDD3"/>
    <circle cx="17.5" cy="7.5" r="1.5" fill="#B6BDD3"/>
    <g fill="#4D71F3" fill-rule="nonzero" transform="translate(16 13)">
      <path d="M19.217,2.023 L10.217,0.023 C10.073995,-0.00800903492 9.92600498,-0.00800903492 9.783,0.023 L0.783,2.023 C0.325192718,2.12476901 -0.000388467442,2.53101782 -3.47251895e-07,3 L-3.47251895e-07,13 C-3.47251895e-07,18.5228475 4.4771525,23 9.99999965,23 C15.5228475,23 19.9999997,18.5228475 19.9999997,13 L19.9999997,3 C20.0003885,2.53101782 19.6748073,2.12476901 19.217,2.023 Z M15,16 C15,16.5522847 14.5522847,17 14,17 L6,17 C5.44771525,17 5,16.5522847 5,16 L5,11 C5,10.4477153 5.44771525,10 6,10 L7,10 L7,8 C7,6.34314575 8.34314575,5 10,5 C11.6568542,5 13,6.34314575 13,8 L13,10 L14,10 C14.5522847,10 15,10.4477153 15,11 L15,16 Z"/>
      <path d="M10,7 C9.44771525,7 9,7.44771525 9,8 L9,10 L11,10 L11,8 C11,7.44771525 10.5522847,7 10,7 Z"/>
    </g>
  </g>
</svg>
