<svg xmlns="http://www.w3.org/2000/svg" width="46" height="46" viewBox="0 0 46 46">
  <g fill="none">
    <path fill="#B6BDD3" d="M20.2555208 4.9910402L21.5042889 4.9910402 21.5042889 10.0800004C21.5042889 10.3200004 21.6955401 10.5600004 21.9842889 10.5600004L24.095521 10.5600004C24.335521 10.5600004 24.575521 10.3687492 24.575521 10.0800004L24.575521 4.9910402 25.824289 4.9910402C26.0155402 4.9910402 26.2555402 4.84666579 26.353057 4.65541458 26.4486827 4.46416338 26.4486827 4.22416337 26.3043082 4.07979856L23.4712041.479798419C23.3755785.335424013 23.1824553.23979841 23.0399529.23979841 22.8487017.23979841 22.7043273.335424013 22.6087017.479798419L19.8243176 4.07979856C19.728692 4.17542417 19.6799432 4.31979857 19.6799432 4.41542418 19.6799432 4.51104978 19.6799432 4.60667538 19.728692 4.65542418 19.8711944 4.84854739 20.0643176 4.9910498 20.255588 4.9910498L20.2555208 4.9910402zM10.56001 24.095521L10.56001 21.9842889C10.56001 21.7442889 10.3687492 21.5042889 10.0800004 21.5042889L4.9910402 21.5042889 4.9910402 20.2555208C4.9910402 20.0155208 4.84666579 19.8242696 4.65541458 19.7267528 4.46416338 19.6311272 4.22416337 19.6311272 4.07979856 19.7755016L.479798419 22.6086057C.335424013 22.7042313.23979841 22.8973545.23979841 23.0398569.23979841 23.2311081.335424013 23.3754825.479798419 23.4711081L4.07979856 26.2554922C4.17542417 26.3511178 4.31979857 26.3511178 4.41542418 26.3511178 4.51104978 26.3511178 4.60667538 26.3511178 4.65542418 26.302369 4.84667539 26.2067434 4.9910498 26.0136202 4.9910498 25.773601L4.9910498 24.524833 10.08001 24.5285827C10.32001 24.5754581 10.56001 24.3354595 10.56001 24.0954595L10.56001 24.095521zM25.824481 41.0889616L24.575713 41.0889616 24.575713 36.0000014C24.575713 35.7600014 24.3844618 35.5200014 24.095713 35.5200014L21.9844809 35.5200014C21.7444809 35.5200014 21.5044809 35.7112526 21.5044809 36.0000014L21.5044809 41.0889616 20.2557128 41.0889616C20.0157128 41.0889616 19.8244616 41.233336 19.7269448 41.4245872 19.6313192 41.6158385 19.6313192 41.8558385 19.7756936 42.0002033L22.5600777 45.6002034C22.6557033 45.7445778 22.8488265 45.8402034 22.9913289 45.8402034 23.1825801 45.8402034 23.3269545 45.7445778 23.4225801 45.6002034L26.2069642 42.0002033C26.3025898 41.9045777 26.3025898 41.7602033 26.3025898 41.6645777 26.3025898 41.5689521 26.3025898 41.4733264 26.253841 41.4245776 26.208841 41.2314544 26.0157178 41.088952 25.8244666 41.088952L25.824481 41.0889616zM45.6000018 22.6089609L42.0000017 19.8245768C41.9043761 19.7289512 41.7600017 19.6802024 41.6643761 19.6802024 41.5687505 19.6802024 41.4731248 19.6802024 41.424376 19.7289512 41.2331248 19.8245768 41.0887504 20.0177 41.0887504 20.2577192L41.0887504 21.5064873 35.9997902 21.5046119C35.7597902 21.5046119 35.5197902 21.6958631 35.5197902 21.9846119L35.5197902 24.095844C35.5197902 24.335844 35.7110414 24.575844 35.9997902 24.575844L41.0887504 24.575844 41.0887504 25.8246121C41.0887504 26.0646121 41.2331248 26.2558633 41.424376 26.3533801 41.6156273 26.4490057 41.8556273 26.4490057 41.9999921 26.3046313L45.5999922 23.5202472C45.7443666 23.4246216 45.8399922 23.2314984 45.8399922 23.088996 45.8399922 22.8489959 45.7443666 22.7046215 45.5999922 22.6089959L45.6000018 22.6089609zM32.6400013 14.9289606C32.8312525 15.1202118 33.1200013 15.1202118 33.3112333 14.9289606L36.9112335 11.3289605 37.7756175 12.1933445C37.9199919 12.3377189 38.1599919 12.3845957 38.3512335 12.3377189 38.5424847 12.2889701 38.6868591 12.0977189 38.7356079 11.8577189L39.311224 7.34648669C39.311224 7.15523548 39.2624752 7.01086108 39.1668496 6.86648667 39.0224752 6.72211227 38.8781007 6.67523547 38.6868495 6.72211227L34.1756174 7.29772829C34.031243 7.29772829 33.9356173 7.39335389 33.8399917 7.4421027 33.7912429 7.4908515 33.7443661 7.5864771 33.6956173 7.68210271 33.6468685 7.87335391 33.6956173 8.11335392 33.8399917 8.25771873L34.7043758 9.12210276 31.1043756 12.7221029C30.9131244 12.9133541 30.9131244 13.2021029 31.1043756 13.3933349L32.6400013 14.9289606zM7.5355203 12.2400005C7.5842691 12.2887493 7.67989471 12.3356261 7.77552031 12.3843749 7.96677152 12.4331237 8.20677153 12.3843749 8.35113633 12.2400005L9.21552037 11.3756165 12.8155205 14.9756166C13.0067717 15.1668678 13.2955205 15.1668678 13.4867525 14.9756166L14.9755206 13.4868485C15.1667718 13.2955973 15.1667718 13.0068485 14.9755206 12.8156259L11.3755205 9.21561637 12.2399045 8.35123233C12.3842789 8.20685793 12.4311557 7.96685792 12.3842789 7.77561631 12.3355301 7.5843651 12.1442789 7.4399907 11.9042789 7.39124189L7.39304669 6.81562587C7.20179549 6.81562587 7.05742108 6.86437467 6.91304667 6.96000028 6.76867227 7.10437468 6.72179547 7.24874909 6.76867227 7.4400003L7.34428829 11.9512325C7.39116365 12.0487301 7.4399139 12.1443557 7.5355395 12.2399813L7.5355203 12.2400005zM13.4400005 31.1510412C13.2487493 30.95979 12.9600005 30.95979 12.7687779 31.1510412L9.16876836 34.7510414 8.30438433 33.8866573C8.16000992 33.7422829 7.92000991 33.6954061 7.72876831 33.7422829 7.5375171 33.7910317 7.39314269 33.982283 7.34439389 34.222283L6.76877787 38.7335151C6.76877787 38.9247663 6.81752667 39.0691408 6.91315227 39.2135152 7.05752668 39.3578896 7.20190109 39.4047664 7.39315229 39.3578896L11.9043845 38.7822735C12.0487589 38.7822735 12.1443845 38.6866479 12.2400101 38.6378991 12.2887589 38.5891503 12.3356357 38.4935247 12.3843845 38.3978991 12.4331333 38.2066479 12.3843845 37.9666479 12.2400101 37.8222831L11.3756261 36.9578991 14.9756262 33.3578989C15.1668774 33.1666477 15.1668774 32.8778989 14.9756262 32.6866669L13.4400005 31.1510412zM38.5444815 33.8400013C38.4957327 33.7912525 38.4001071 33.7443757 38.3044815 33.6956269 38.1132303 33.6468781 37.8732303 33.6956269 37.7288655 33.8400013L36.8644815 34.7043854 33.2644813 31.1043852C33.0732301 30.913134 32.7844813 30.913134 32.5932493 31.1043852L31.1513772 32.6400013C30.960126 32.8312525 30.960126 33.1200013 31.1513772 33.3112333L34.7513774 36.9112335 33.8869933 37.7756175C33.7426189 37.9199919 33.6957421 38.1599919 33.7426189 38.3512335 33.7913677 38.5424847 33.982619 38.6868591 34.222619 38.7356079L38.7338511 39.311224C38.9251023 39.311224 39.0694768 39.2624752 39.2138512 39.1668496 39.3582256 39.0224752 39.4051024 38.8781007 39.3582256 38.6868495L38.7826095 34.1756174C38.6888607 34.031243 38.6401071 33.9356173 38.5444863 33.8399917L38.5444815 33.8400013z"/>
    <path fill="#4D71F3" d="M23.0400009,13.4400005 C17.7600007,13.4400005 13.4400005,17.7600007 13.4400005,23.0400009 C13.4400005,28.3200011 17.7600007,32.6400013 23.0400009,32.6400013 C28.3200011,32.6400013 32.6400013,28.3200011 32.6400013,23.0400009 C32.6400013,17.7600007 28.3200011,13.4400005 23.0400009,13.4400005 Z M27.2643851,21.7910409 L22.9443849,26.111041 C22.7043849,26.351041 22.3687689,26.4954155 22.0331529,26.4954155 C21.6975273,26.4954155 21.3619208,26.351041 21.1219208,26.111041 L18.8663047,23.8554249 C18.3375367,23.3266569 18.3375367,22.5110409 18.8663047,22.0310409 C19.3950728,21.5022729 20.2106888,21.5022729 20.6906888,22.0310409 L22.0350729,23.3754249 L25.443841,19.9666568 C25.972609,19.4378888 26.7882251,19.4378888 27.2682251,19.9666568 C27.7444763,20.4485288 27.7444763,21.2641448 27.2644748,21.7910409 L27.2643851,21.7910409 Z"/>
  </g>
</svg>
