<svg xmlns="http://www.w3.org/2000/svg" width="51" height="43" viewBox="0 0 51 43">
  <g fill="none" fill-rule="evenodd" transform="translate(0 .383)">
    <rect width="48.75" height="39.75" x="1.125" y="1.125" fill="#FFF" stroke="#B6BDD3" stroke-width="2.25" rx="3.75"/>
    <circle cx="7.5" cy="8.117" r="1.5" fill="#B6BDD3"/>
    <circle cx="12.5" cy="8.117" r="1.5" fill="#B6BDD3"/>
    <circle cx="17.5" cy="8.117" r="1.5" fill="#B6BDD3"/>
    <g transform="translate(11 6.617)">
      <path fill="#B6BDD3" fill-rule="nonzero" d="M24,13.8205384 C23.5360825,13.4646062 18.9175258,9.6331007 12,9.6331007 C10.4536082,9.6331007 9.02061856,9.83200399 7.72164948,10.1355932 L18.371134,20.9391825 L24,13.8205384 Z M17.1958763,22.4257228 L3,8 L1.69072165,9.33998006 L3.80412371,11.4965105 C1.59793814,12.5224327 0.237113402,13.6321037 0,13.8205384 L11.9896907,28.9895314 L12,29 L12.0103093,28.9895314 L16.0309278,23.9017946 L19.4536082,27.3773679 L20.7628866,26.0478564 L17.1958763,22.4257228 Z"/>
      <g transform="translate(15)">
        <circle cx="8.441" cy="8" r="8" fill="#4D71F3"/>
        <path fill="#FFF" d="M11.6995754,5.2907927 L7.40957539,9.5907927 L5.75957539,7.9407927 C5.51518551,7.65541654 5.13145699,7.53111075 4.76615642,7.61898256 C4.40085584,7.70685437 4.11563706,7.99207315 4.02776525,8.35737372 C3.93989345,8.7226743 4.06419923,9.10640281 4.34957539,9.3507927 L6.69957539,11.7107927 C6.88829422,11.8979792 7.14377241,12.0023295 7.40957539,12.0008094 C7.67191527,11.9996881 7.92331475,11.8955369 8.10957539,11.7107927 L13.1095754,6.7107927 C13.298888,6.5230261 13.4053737,6.26743023 13.4053737,6.0007927 C13.4053737,5.73415516 13.298888,5.4785593 13.1095754,5.2907927 C12.7195379,4.9030691 12.0896128,4.9030691 11.6995754,5.2907927 Z"/>
      </g>
    </g>
  </g>
</svg>
