<svg xmlns="http://www.w3.org/2000/svg" width="42" height="48" viewBox="0 0 42 48">
  <g fill="none" fill-rule="evenodd" transform="translate(0 5)">
    <rect width="39.75" height="27.75" x="1.125" y="9.508" fill="#FFF" stroke="#B6BDD3" stroke-width="2.25" rx="3.75"/>
    <rect width="31.75" height="35.75" x="5.125" y="5.508" fill="#FFF" stroke="#B6BDD3" stroke-width="2.25" rx="3.75"/>
    <path fill="#4D71F3" stroke="#FFF" stroke-width="2" d="M21,-2.25955146 L18.2786861,3.25443275 L12.1936432,4.13864124 L16.5968216,8.43067938 L15.5573722,14.4911345 L21,11.6297757 L26.4426278,14.4911345 L25.4031784,8.43067938 L29.8063568,4.13864124 L23.7213139,3.25443275 L21,-2.25955146 Z"/>
    <path fill="#B6BDD3" fill-rule="nonzero" d="M12.1149 12.6207C11.1816 13.1688 10.1322 13.5 9 13.5 7.8678 13.5 6.8184 13.1688 5.8851 12.6207 2.6046 12.8358 0 15.5664 0 18.9L0 20.457.6255 20.6577C.7461 20.6955 3.6342 21.6 9 21.6 14.3658 21.6 17.2539 20.6955 17.3745 20.6577L18 20.457 18 18.9C18 15.5664 15.3954 12.8358 12.1149 12.6207zM9 11.7C12.0411 11.7 14.4 8.3133 14.4 5.4 14.4 2.4219 11.9781 0 9 0 6.0219 0 3.6 2.4219 3.6 5.4 3.6 8.3133 5.9589 11.7 9 11.7z" transform="translate(12 20)"/>
  </g>
</svg>
