<svg xmlns="http://www.w3.org/2000/svg" width="45" height="36" viewBox="0 0 45 36">
  <g fill="none" fill-rule="evenodd">
    <rect width="36.75" height="25.75" x="1.125" y="9.125" fill="#FFF" stroke="#B6BDD3" stroke-width="2.25" rx="3.75"/>
    <rect width="15.75" height="7.75" x="5.125" y="23.125" fill="#FFF" stroke="#B6BDD3" stroke-width="2.25" rx="3.75"/>
    <g transform="translate(20)">
      <circle cx="12" cy="9.884" r="9" fill="#FFF"/>
      <path fill="#4D71F3" fill-rule="nonzero" d="M0.0212370008,19.6514078 C-0.025638001,19.7932058 0.0106902004,19.9490648 0.116160005,20.0533478 C0.221628009,20.1588158 0.377487015,20.1963158 0.519300021,20.1494408 L6.16530024,18.2756107 C8.03562032,19.1146808 10.0641004,19.5435908 12.1137005,19.5342008 C18.8040007,19.5342008 24.227401,15.1620006 24.227401,9.76770039 C24.227401,4.37370017 18.8040007,-2.73558953e-13 12.1137005,-2.73558953e-13 C5.42340022,-2.73558953e-13 -8.8817842e-15,4.37340017 -8.8817842e-15,9.76770039 C0.0128907005,11.5489505 0.595320024,13.2786005 1.66290007,14.7036006 L0.0212370008,19.6514078 Z M17.1131377,8.28650733 L17.1119656,8.28650733 C17.7119656,8.28650733 18.2510356,8.64743734 18.4807156,9.20057737 C18.7104046,9.75371739 18.5838406,10.3912174 18.1596256,10.8154174 C17.7365656,11.2384774 17.0990656,11.3650175 16.5459556,11.1353374 C15.9916455,10.9068214 15.6318855,10.3665874 15.6318855,9.76775739 C15.6318855,9.37517737 15.7877445,8.99783736 16.0654755,8.72009735 C16.3432065,8.44235734 16.7193856,8.28650733 17.1119656,8.28650733 L17.1131377,8.28650733 Z M12.1151375,8.28650733 L12.1139657,8.28650733 C12.7127957,8.28650733 13.2530357,8.64743734 13.4827157,9.20057737 C13.7112317,9.75371739 13.5846677,10.3912174 13.1616257,10.8142474 C12.7373957,11.2384774 12.1010657,11.3650175 11.5467857,11.1353374 C10.9936456,10.9068214 10.6327156,10.3665874 10.6327156,9.76775739 C10.6327156,9.37517737 10.7885746,8.99783736 11.0663056,8.72009735 C11.3440367,8.44235734 11.7213857,8.28650733 12.1139657,8.28650733 L12.1151375,8.28650733 Z M7.11713728,8.28650733 L7.11479368,8.28650733 C7.71479371,8.28650733 8.25503373,8.64743734 8.48354374,9.20057737 C8.71322975,9.75371739 8.58666874,10.3912174 8.16245372,10.8142474 C7.73939371,11.2384774 7.10189368,11.3650175 6.54878366,11.1353374 C5.99564364,10.9068214 5.63471362,10.3665874 5.63471362,9.76775739 C5.63471362,8.94977736 6.29798365,8.28650733 7.11596368,8.28650733 L7.11713728,8.28650733 Z"/>
    </g>
    <circle cx="10" cy="27" r="1" fill="#B6BDD3"/>
    <circle cx="13" cy="27" r="1" fill="#B6BDD3"/>
    <circle cx="16" cy="27" r="1" fill="#B6BDD3"/>
  </g>
</svg>
