<svg xmlns="http://www.w3.org/2000/svg" width="51" height="42" viewBox="0 0 51 42">
  <g fill="none" fill-rule="evenodd">
    <rect width="40.75" height="28.541" x="1.125" y="1.125" fill="#FFF" stroke="#B6BDD3" stroke-width="2.25" rx="3.75" transform="translate(4)"/>
    <g transform="translate(0 5)">
      <rect width="48.75" height="34.133" x="1.125" y="1.125" fill="#FFF" stroke="#B6BDD3" stroke-width="2.25" rx="3.75"/>
      <path fill="#4D71F3" fill-rule="nonzero" d="M12.1149 12.6207C11.1816 13.1688 10.1322 13.5 9 13.5 7.8678 13.5 6.8184 13.1688 5.8851 12.6207 2.6046 12.8358 0 15.5664 0 18.9L0 20.457.6255 20.6577C.7461 20.6955 3.6342 21.6 9 21.6 14.3658 21.6 17.2539 20.6955 17.3745 20.6577L18 20.457 18 18.9C18 15.5664 15.3954 12.8358 12.1149 12.6207zM9 11.7C12.0411 11.7 14.4 8.3133 14.4 5.4 14.4 2.4219 11.9781 0 9 0 6.0219 0 3.6 2.4219 3.6 5.4 3.6 8.3133 5.9589 11.7 9 11.7z" transform="translate(7 8)"/>
      <rect width="14" height="2.467" x="28.842" y="10.483" fill="#4D71F3" rx=".75"/>
      <path fill="#4D71F3" d="M29.5924658,16.65 L37.0924658,16.65 C37.5066793,16.65 37.8424658,16.9857864 37.8424658,17.4 L37.8424658,18.3666667 C37.8424658,18.7808802 37.5066793,19.1166667 37.0924658,19.1166667 L33.2635184,19.1166667 L33.2635184,19.1166667 L29.5924658,19.1166667 C29.1782522,19.1166667 28.8424658,18.7808802 28.8424658,18.3666667 L28.8424658,17.4 C28.8424658,16.9857864 29.1782522,16.65 29.5924658,16.65 Z"/>
    </g>
  </g>
</svg>
