<svg xmlns="http://www.w3.org/2000/svg" width="56" height="41" viewBox="0 0 56 41">
  <g fill="none" fill-rule="evenodd" transform="translate(3)">
    <rect width="48.75" height="34.133" x="3.125" y="1.125" fill="#FFF" stroke="#B6BDD3" stroke-width="2.25" rx="3.75"/>
    <rect width="48" height="2" x="4" y="9" fill="#B6BDD3"/>
    <rect width="10.75" height="6.75" x="35.125" y="17.125" fill="#FFF" stroke="#B6BDD3" stroke-width="2.25" rx="2"/>
    <g transform="translate(0 16)">
      <rect width="24.25" height="24.25" x="-1.125" y="-1.125" fill="#4D71F3" stroke="#FFF" stroke-width="2.25" rx="12.125"/>
      <g fill="#FFF" fill-rule="nonzero" transform="translate(5 5)">
        <path d="M1.89534783,0.0361695652 C2.01049696,0.00967565217 2.54548696,0.626178261 3.54821739,1.6799087 C4.74148696,2.93381739 5.1393913,3.32260435 5.10482609,3.43621304 C5.03604261,3.66243913 1.16478261,4.24175217 1.00330435,4.06852174 C0.841786957,3.8952913 1.66464783,0.0897391304 1.89545217,0.0362608696 L1.89534783,0.0361695652 Z"/>
        <path d="M3.57626087,0.622108696 C3.01274348,0.84476087 2.48539565,1.14945652 2.01156522,1.5264913 L4.2003913,2.47673478 C4.23096261,2.46297783 4.26153261,2.44973087 4.29261261,2.43648391 C6.44778652,1.58611435 8.88378652,2.64437087 9.7342213,4.79904913 C10.5845909,6.95422304 9.52633435,9.39022304 7.37165609,10.2406578 C5.21648217,11.0910274 2.78048217,10.0327709 1.93004739,7.87809261 C1.0873213,6.41839696 -0.359735217,7.27584913 0.115177826,8.59395783 C1.36093435,11.7513926 4.93004739,13.3008274 8.08696043,12.0550448 C11.2438735,10.8092622 12.79383,7.24069696 11.5480474,4.08326217 C10.3027996,0.925827391 6.73369957,-0.623607391 3.57626478,0.621653478 L3.57626087,0.622108696 Z"/>
      </g>
    </g>
  </g>
</svg>
